<svg version="1.1" id="Layer_1" xmlns="http://www.w3.org/2000/svg" xmlns:xlink="http://www.w3.org/1999/xlink" x="0px" y="0px"
	 width="100%" viewBox="0 0 1024 1024" enable-background="new 0 0 1024 1024" xml:space="preserve">
<path fill="#000000" opacity="1.000000" stroke="none" 
	d="
M411.999878,638.430786 
	C389.506073,638.581299 367.512421,638.753052 345.518463,638.870728 
	C336.871918,638.916992 336.882385,638.861938 336.882019,630.479492 
	C336.878510,546.148865 336.874664,461.818268 336.845367,377.487640 
	C336.844635,375.362885 337.269470,373.163025 335.694916,370.004913 
	C320.493958,380.183777 305.437561,390.265839 290.593048,400.205994 
	C288.243103,398.661530 288.777832,396.837677 288.772858,395.281006 
	C288.722351,379.448334 288.854858,363.613953 288.650391,347.783752 
	C288.600403,343.915894 290.165558,341.739502 293.197906,339.697662 
	C334.800903,311.683899 376.350281,283.590546 417.896515,255.492554 
	C443.845947,237.942795 469.764221,220.346939 495.710754,202.792877 
	C497.335968,201.693375 498.806091,200.224121 501.008575,200.090317 
	C502.938141,201.361893 502.249847,203.377319 502.250214,205.071426 
	C502.265472,272.569092 502.207489,340.066803 502.276367,407.564392 
	C502.280609,411.730804 501.283722,413.548828 496.699371,413.450592 
	C484.205505,413.182953 471.698486,413.185425 459.204529,413.451752 
	C454.687653,413.548035 453.569794,411.887634 453.584717,407.640717 
	C453.712311,371.308990 453.668243,334.976624 453.617096,298.644531 
	C453.613953,296.426025 454.352631,293.943085 452.289673,292.060394 
	C449.858124,291.979462 448.275787,293.653534 446.534973,294.827942 
	C427.476410,307.685547 408.500183,320.665894 389.380463,333.431427 
	C386.350433,335.454437 385.348694,337.732239 385.351196,341.249390 
	C385.408508,422.246704 385.399475,503.244080 385.276794,584.241272 
	C385.270233,588.583679 386.582733,590.057617 390.981567,590.014343 
	C409.812439,589.828674 428.647736,589.814331 447.477875,590.037292 
	C452.196838,590.093140 453.790619,588.757629 453.761658,583.852295 
	C453.563843,550.354492 453.650787,516.855042 453.658447,483.356110 
	C453.659973,476.739594 453.685028,476.718384 460.262543,476.708984 
	C472.428802,476.691589 484.597137,476.827881 496.760223,476.629608 
	C500.835358,476.563171 502.302765,477.878662 502.293793,482.047119 
	C502.184967,532.545288 502.178436,583.043823 502.275787,633.541992 
	C502.283600,637.605408 500.767181,638.559631 496.959839,638.539795 
	C468.807098,638.393250 440.653320,638.442627 411.999878,638.430786 
z"/>
<path fill="#000000" opacity="1.000000" stroke="none" 
	d="
M702.867554,317.083984 
	C717.854553,327.387695 732.454468,337.624878 747.297974,347.495667 
	C751.434326,350.246368 753.045715,353.500244 752.935791,358.271759 
	C752.613525,372.260742 753.366882,386.262909 752.475464,400.248444 
	C752.351990,402.186249 753.047913,404.414307 750.805359,405.614777 
	C748.305969,406.952759 746.752136,404.831543 745.053955,403.713531 
	C732.807617,395.650970 720.617554,387.502930 708.393677,379.406158 
	C707.449036,378.780518 706.382080,378.339630 704.611877,377.416504 
	C704.611877,385.027222 704.171814,392.109467 704.702454,399.118164 
	C705.848022,414.250366 705.948425,414.352386 691.106201,414.353149 
	C680.440369,414.353729 669.772339,414.224030 659.109741,414.409363 
	C654.376587,414.491577 652.726257,412.550018 652.526794,407.901520 
	C651.661987,387.745789 651.937988,367.581940 651.884033,347.422943 
	C651.872192,342.991119 650.628784,340.205383 646.804016,337.610840 
	C624.606445,322.553162 602.634216,307.163513 580.552185,291.934845 
	C579.108948,290.939514 577.884766,289.399567 575.778931,289.360260 
	C574.661987,291.414001 575.209351,293.607574 575.204346,295.691956 
	C575.069092,352.187408 575.307617,408.686066 574.769531,465.177429 
	C574.396606,504.338043 574.668152,543.496948 574.236084,582.653198 
	C574.179382,587.791199 575.805908,589.143494 580.774902,589.137512 
	C602.266724,589.111816 623.758789,589.495117 645.251221,589.684326 
	C652.993713,589.752502 653.054199,589.694580 653.063416,581.689819 
	C653.099182,550.525574 653.095093,519.361389 653.102600,488.197144 
	C653.105469,476.314667 653.085938,475.993591 664.589905,475.435150 
	C676.399109,474.861877 688.242798,474.971313 700.072021,474.849152 
	C704.221558,474.806274 706.115845,477.132690 706.060730,481.152313 
	C705.556274,517.969238 705.013306,554.785645 704.541382,591.603027 
	C704.359802,605.766296 704.172668,619.933228 704.325012,634.094910 
	C704.374817,638.728271 703.186951,640.492432 698.203552,640.460876 
	C648.042114,640.143188 597.879089,640.066040 547.716736,639.875732 
	C541.388977,639.851746 535.060974,639.406860 528.735413,639.455566 
	C524.200806,639.490479 522.663025,637.575745 522.687317,633.102722 
	C522.822632,608.105469 522.735596,583.106934 522.737000,558.108887 
	C522.743591,440.784576 522.754211,323.460297 522.764099,206.136002 
	C522.764221,204.802795 522.716431,203.466446 522.789368,202.136948 
	C523.036987,197.622147 526.007446,195.965195 529.826477,198.460968 
	C536.380432,202.744034 542.795105,207.240891 549.252319,211.671204 
	C600.361206,246.737366 651.466309,281.808990 702.867554,317.083984 
M579.824219,238.725128 
	C562.887451,227.113617 545.950684,215.502106 527.968567,203.173920 
	C527.968567,206.810471 527.966553,208.950592 527.968933,211.090729 
	C527.985413,225.754013 528.018127,240.417313 528.017395,255.080597 
	C528.011292,379.218842 527.998535,503.357056 527.990112,627.495300 
	C527.989624,634.675964 527.999084,634.655823 535.092590,634.699829 
	C586.575134,635.019104 638.057434,635.390625 689.540344,635.635986 
	C699.969482,635.685669 699.229187,637.441345 699.417236,625.906616 
	C700.183228,578.931213 700.359009,531.946411 700.855713,484.966125 
	C700.895264,481.222656 699.529297,480.000763 695.894226,480.072906 
	C685.566406,480.277985 675.233643,480.229584 664.902832,480.283966 
	C658.305298,480.318726 658.291565,480.321106 658.290222,486.864075 
	C658.283508,520.189758 658.292908,553.515503 658.275208,586.841187 
	C658.271912,592.989319 657.113281,594.397705 651.671448,594.396912 
	C626.510620,594.393188 601.349792,594.286987 576.188965,594.275452 
	C571.678345,594.273376 569.602478,592.491028 569.609741,587.706421 
	C569.761292,487.896088 569.820251,388.085632 569.910645,288.275208 
	C569.912720,285.972626 569.574402,283.456665 572.115906,282.077332 
	C574.671448,280.690338 576.173645,282.924225 577.820374,284.060913 
	C602.088379,300.812134 626.215942,317.769196 650.615540,334.325531 
	C655.368286,337.550476 657.149292,341.179291 657.117676,346.691498 
	C657.006836,366.019104 657.263000,385.348572 657.230774,404.677094 
	C657.224915,408.171692 658.075623,409.822662 661.976440,409.750793 
	C672.970215,409.548248 683.971985,409.566132 694.966553,409.747162 
	C698.691406,409.808533 699.931763,408.504333 699.832092,404.814514 
	C699.580200,395.488739 699.617554,386.154358 699.608948,376.823364 
	C699.607178,374.947784 698.909119,372.875610 701.418884,371.634613 
	C703.868469,370.423309 705.527283,371.588837 707.349792,372.803528 
	C717.746643,379.732971 728.149292,386.653809 738.558960,393.563934 
	C741.288025,395.375549 744.049194,397.138763 746.822388,398.941589 
	C748.184448,397.037170 747.679199,395.326416 747.687805,393.739410 
	C747.745728,383.075500 747.335510,372.391479 747.876099,361.754578 
	C748.177856,355.816956 746.025940,352.498047 741.240417,349.238251 
	C687.546875,312.663177 634.005981,275.864136 579.824219,238.725128 
z"/>
<path fill="#000000" opacity="1.000000" stroke="none" 
	d="
M638.000000,665.825562 
	C671.164429,665.828064 703.828796,665.829163 736.493225,665.837708 
	C737.824219,665.838074 739.162109,665.838989 740.484314,665.967468 
	C741.760681,666.091553 742.683411,666.790222 742.821533,668.150208 
	C742.993530,669.845154 741.899841,670.583313 740.453857,670.770020 
	C738.973816,670.961121 737.465942,670.997314 735.970215,670.997437 
	C587.313782,671.010071 438.657318,671.020935 290.000885,670.946838 
	C287.538330,670.945618 283.194946,672.406982 283.400635,668.090393 
	C283.576599,664.397827 287.661469,665.895325 290.024170,665.893799 
	C405.849426,665.817993 521.674744,665.826416 638.000000,665.825562 
z"/>
<path fill="#000000" opacity="1.000000" stroke="none" 
	d="
M269.320312,777.682251 
	C277.457611,787.197510 278.274139,800.188721 271.582458,809.809937 
	C265.174927,819.022583 252.763763,822.892761 242.302841,818.883179 
	C232.751099,815.222046 227.511505,807.998352 226.971161,798.039917 
	C226.432892,788.120361 230.149216,779.602234 239.026123,774.380676 
	C247.949081,769.131958 257.103485,769.367188 265.964569,774.909302 
	C267.083466,775.609009 268.033173,776.579285 269.320312,777.682251 
M262.697449,805.037048 
	C265.511475,800.642883 265.336548,795.758911 264.424805,791.016113 
	C263.008514,783.648560 255.824997,779.165833 248.659470,780.722168 
	C242.915817,781.969666 239.072021,786.360657 238.232941,792.632996 
	C237.183975,800.474426 239.518417,806.002747 245.095688,808.884399 
	C251.162598,812.019165 256.849457,810.951599 262.697449,805.037048 
z"/>
<path fill="#000000" opacity="1.000000" stroke="none" 
	d="
M714.180969,820.306763 
	C701.381592,818.881775 692.711914,810.703064 691.729248,799.545837 
	C690.610291,786.841187 697.499573,775.603394 708.609985,772.010254 
	C719.976196,768.334351 732.549805,772.535645 737.570496,782.480347 
	C745.957214,799.092346 736.739380,820.787903 714.180969,820.306763 
M706.726807,806.789856 
	C707.959595,807.619629 709.107056,808.635376 710.439941,809.247070 
	C716.301331,811.936890 723.067505,810.461548 726.682983,805.826050 
	C731.000244,800.290833 730.706299,790.559875 726.052612,784.958801 
	C722.335754,780.485291 715.712830,779.138367 710.192810,781.733276 
	C702.040894,785.565369 700.069580,797.704712 706.726807,806.789856 
z"/>
<path fill="#000000" opacity="1.000000" stroke="none" 
	d="
M795.323730,789.001587 
	C795.320984,797.667908 795.380737,805.835205 795.270142,814.000244 
	C795.243713,815.953796 796.218750,818.773315 792.973267,819.197815 
	C790.227539,819.556946 787.336731,820.022034 785.395630,816.947937 
	C781.215088,810.327515 776.894531,803.795166 772.603577,797.244995 
	C771.898438,796.168457 771.052917,795.183960 769.328979,792.916077 
	C769.328979,801.038696 769.180054,807.768677 769.388489,814.487610 
	C769.501709,818.136597 768.265625,819.479187 764.531006,819.467896 
	C760.846313,819.456726 759.558960,818.182495 759.601257,814.517212 
	C759.745544,802.019226 759.613525,789.518250 759.688599,777.019043 
	C759.699585,775.187195 758.848755,772.601807 761.573975,771.967102 
	C764.364014,771.317322 767.182617,771.272400 769.069031,774.298279 
	C772.947571,780.519348 776.953369,786.661194 780.914246,792.830872 
	C781.892639,794.354919 782.899292,795.860779 784.966858,797.252869 
	C784.966858,790.716431 784.914062,784.179382 784.982727,777.643677 
	C785.043274,771.877441 785.735413,771.437012 791.363892,771.639465 
	C794.473816,771.751282 795.396179,773.183472 795.334839,776.002808 
	C795.244263,780.167236 795.319275,784.335327 795.323730,789.001587 
z"/>
<path fill="#000000" opacity="1.000000" stroke="none" 
	d="
M330.374878,804.993286 
	C330.371155,808.320740 330.482269,811.156250 330.324158,813.976685 
	C330.213562,815.949646 331.204254,818.691833 328.000061,819.186523 
	C325.184753,819.621277 322.447235,819.739563 320.557159,816.689270 
	C316.702942,810.469055 312.630341,804.383850 308.630829,798.254028 
	C307.821198,797.013123 306.937103,795.820862 305.048615,794.719360 
	C305.048615,800.903442 305.080597,807.087708 305.039276,813.271545 
	C305.000671,819.052002 304.283997,819.522156 298.758667,819.412415 
	C295.236969,819.342468 294.709961,817.534668 294.726593,814.640503 
	C294.799286,801.993286 294.733826,789.345337 294.793335,776.697937 
	C294.802155,774.823730 294.243011,772.358887 297.073242,771.894226 
	C299.907135,771.428894 302.630035,771.360840 304.493774,774.418701 
	C308.389618,780.810608 312.484253,787.081665 316.516083,793.390320 
	C317.581055,795.056702 318.714874,796.679077 320.660278,799.578308 
	C320.660278,791.165100 320.772858,784.112976 320.613129,777.067078 
	C320.532227,773.498657 321.270844,771.565613 325.503937,771.569519 
	C329.704193,771.573425 330.469604,773.428406 330.408234,777.037109 
	C330.252686,786.187317 330.367920,795.342041 330.374878,804.993286 
z"/>
<path fill="#000000" opacity="1.000000" stroke="none" 
	d="
M451.117859,816.605286 
	C451.034668,803.152466 451.126953,790.156067 450.931488,777.163940 
	C450.864868,772.735229 452.479492,770.733032 456.968719,770.775391 
	C461.959381,770.822510 466.942139,770.448303 471.880554,771.642822 
	C477.043640,772.891724 481.453400,775.212769 482.835541,780.665527 
	C484.281677,786.370789 484.019562,792.150940 479.144226,796.320496 
	C476.646484,798.456726 476.798859,800.164062 478.100464,802.707214 
	C480.743469,807.871155 483.146667,813.157837 485.660828,818.419434 
	C477.227722,821.267822 474.733368,820.197266 471.478394,812.579956 
	C470.170105,809.518372 468.820404,806.473999 467.450012,803.439636 
	C466.644318,801.655701 465.161682,801.117432 463.324371,801.455139 
	C461.292480,801.828613 461.385925,803.463989 461.366913,804.961487 
	C461.328796,807.959900 461.451996,810.964600 461.298248,813.955872 
	C461.203888,815.792236 462.210236,818.638855 459.518707,818.982544 
	C456.722900,819.339600 453.140259,821.092041 451.117859,816.605286 
M463.108185,780.528381 
	C459.775452,783.699158 461.682800,787.601318 461.684143,791.215759 
	C461.684448,792.063599 462.610657,792.554443 463.487823,792.649963 
	C466.520172,792.980225 469.477631,792.914917 471.847168,790.583496 
	C473.691437,788.769104 474.177460,786.494934 473.293488,784.178589 
	C472.118378,781.099548 469.323730,780.460815 466.383179,780.323486 
	C465.558533,780.284912 464.729065,780.350952 463.108185,780.528381 
z"/>
<path fill="#000000" opacity="1.000000" stroke="none" 
	d="
M635.426025,728.747864 
	C635.363281,732.986328 635.235901,736.813232 635.341614,740.633667 
	C635.435242,744.014709 633.368408,744.366821 630.789917,744.299683 
	C628.153931,744.231018 625.049561,744.799805 625.037292,740.730591 
	C624.996277,727.097229 625.025757,713.463562 625.076355,699.830139 
	C625.084656,697.597839 626.020569,695.845215 628.552429,695.832275 
	C634.511963,695.801880 640.502869,694.967102 646.407837,696.551819 
	C657.836975,699.619202 661.720459,712.283020 653.449158,720.687317 
	C650.873169,723.304810 650.961670,725.190125 652.354187,727.972595 
	C654.865295,732.990601 657.210815,738.091553 659.643127,743.194702 
	C651.634399,745.979309 648.949158,744.912720 645.781006,737.957886 
	C644.403198,734.933289 643.200806,731.819702 641.668030,728.877197 
	C639.998535,725.672302 637.850708,724.851929 635.426025,728.747864 
M635.353333,713.166138 
	C635.484741,714.932129 635.083496,717.096863 637.575012,717.505554 
	C640.594604,718.000793 643.569092,717.762573 645.858215,715.366760 
	C647.594604,713.549316 648.191162,711.314087 647.235291,708.958435 
	C645.993835,705.899109 643.251221,705.453430 640.318237,705.140442 
	C634.094299,704.476135 635.500244,708.880676 635.353333,713.166138 
z"/>
<path fill="#000000" opacity="1.000000" stroke="none" 
	d="
M369.846008,699.321411 
	C371.793976,694.789978 375.490479,696.686340 378.228851,696.834900 
	C381.312347,697.002136 379.879944,700.204712 380.219513,702.138550 
	C380.361267,702.945862 380.235260,703.798096 380.252960,704.629395 
	C380.492188,715.875183 378.345215,714.599182 390.813049,714.813599 
	C394.453278,714.876221 395.942383,713.667969 395.709747,709.917725 
	C395.453827,705.791687 395.651428,701.637451 395.651428,697.636475 
	C398.277893,695.875000 400.844482,696.807739 403.248718,696.601562 
	C405.595001,696.400269 405.893463,698.236938 405.898560,699.966858 
	C405.938293,713.438843 405.913300,726.911011 405.953888,740.382996 
	C405.964355,743.859009 403.913879,744.416443 401.038879,744.318176 
	C398.237427,744.222351 395.565216,744.327881 395.663940,740.322998 
	C395.758179,736.500061 395.494751,732.663147 395.704620,728.849792 
	C395.900238,725.294800 394.389557,724.214050 391.003754,724.280579 
	C378.309143,724.529968 380.475769,722.969666 380.255432,734.735474 
	C380.230530,736.065674 380.144623,737.405640 380.261749,738.725586 
	C380.601013,742.549744 379.521973,744.502869 375.073364,744.428101 
	C370.787476,744.356079 369.671143,742.618835 369.716492,738.704224 
	C369.866791,725.732361 369.789062,712.757812 369.846008,699.321411 
z"/>
<path fill="#000000" opacity="1.000000" stroke="none" 
	d="
M445.084717,714.771729 
	C446.380707,714.768555 447.225281,714.675842 448.044983,714.779663 
	C452.290222,715.317078 454.271088,713.776001 453.789612,709.230347 
	C453.475555,706.265320 453.769928,703.238464 453.743042,700.239746 
	C453.700714,695.519043 457.248169,696.904724 459.823456,696.629272 
	C462.540985,696.338623 464.266235,696.950562 464.240448,700.285156 
	C464.137543,713.613953 464.138672,726.944458 464.232422,740.273376 
	C464.260315,744.237366 461.854462,744.314941 458.952515,744.325806 
	C455.927795,744.337219 453.645569,743.856079 453.737518,740.070190 
	C453.830505,736.240540 453.641327,732.403931 453.746124,728.574951 
	C453.824371,725.716431 452.901001,724.261719 449.763733,724.299133 
	C435.607605,724.468201 438.701294,723.015991 438.339325,735.071777 
	C438.299316,736.403503 438.233673,737.746338 438.350891,739.068787 
	C438.676483,742.742432 437.572235,744.498840 433.374176,744.431702 
	C429.194305,744.364807 427.833801,742.849426 427.893188,738.816528 
	C428.059998,727.488770 427.948486,716.156921 427.964539,704.826721 
	C427.976990,696.057312 428.449127,695.684692 438.331177,697.184082 
	C438.331177,700.810059 438.635590,704.612061 438.256531,708.344604 
	C437.746796,713.364136 439.482025,715.613892 445.084717,714.771729 
z"/>
<path fill="#000000" opacity="1.000000" stroke="none" 
	d="
M529.834473,800.682922 
	C529.852844,792.392090 530.038940,784.556030 529.801270,776.732727 
	C529.664978,772.245972 531.910461,771.653076 535.645874,771.575989 
	C539.549438,771.495483 541.054688,772.842407 540.922119,776.737793 
	C540.610718,785.890686 540.690308,795.058594 540.289185,804.206238 
	C539.912354,812.798462 533.113647,819.567017 524.657104,820.268860 
	C513.603333,821.186340 505.486053,816.214294 503.742920,806.846924 
	C501.779694,796.296570 502.980377,785.584167 503.020752,774.944946 
	C503.038177,770.353394 506.931213,772.017395 509.455017,771.699707 
	C512.618835,771.301453 514.036377,772.778076 514.038696,775.961182 
	C514.045288,785.123413 514.023376,794.288757 514.262268,803.446472 
	C514.380432,807.978149 517.186035,810.369690 521.638489,810.671265 
	C526.273254,810.985107 528.740723,808.460876 529.607544,804.130798 
	C529.802063,803.159302 529.758484,802.140198 529.834473,800.682922 
z"/>
<path fill="#000000" opacity="1.000000" stroke="none" 
	d="
M552.785400,735.269775 
	C553.952209,738.189941 555.963135,740.381653 556.140991,743.300781 
	C548.660461,745.882507 545.963562,744.796814 542.562744,738.138245 
	C540.300354,733.708679 537.892029,729.353516 535.458679,724.795776 
	C529.160706,728.340759 530.293335,734.129211 530.412292,739.420288 
	C530.493225,743.015686 529.339478,744.463806 525.551697,744.388489 
	C521.932922,744.316345 520.559021,743.143494 520.610779,739.435120 
	C520.773254,727.785889 520.659180,716.132935 520.658325,704.481384 
	C520.657715,696.069702 520.662048,696.069702 530.173584,696.957153 
	C530.173584,702.358887 530.173584,707.873474 530.173584,713.388062 
	C530.528992,713.462219 530.884399,713.536377 531.239807,713.610535 
	C533.871460,710.054321 537.090393,706.786194 539.006775,702.879150 
	C542.497803,695.761719 548.147827,695.964783 554.969116,696.970337 
	C552.048279,702.429016 548.123169,706.682861 544.652649,711.224060 
	C542.887634,713.533691 542.656738,715.475464 544.022583,718.027832 
	C547.005371,723.601501 549.759399,729.297546 552.785400,735.269775 
z"/>
<path fill="#000000" opacity="1.000000" stroke="none" 
	d="
M578.453125,740.499390 
	C575.929565,747.071838 571.181213,743.312744 567.623474,744.082214 
	C566.627075,741.917786 567.468628,740.517456 567.948669,739.165588 
	C572.513733,726.310120 577.312073,713.534546 581.667358,700.609314 
	C582.952454,696.795349 585.299438,696.647461 588.494202,696.558960 
	C591.765503,696.468201 593.589355,697.347107 594.752319,700.698425 
	C599.059814,713.111572 603.722107,725.401306 608.195679,737.757507 
	C608.861694,739.597168 609.883240,741.409973 609.437622,743.501770 
	C601.124084,745.697083 599.747681,745.168213 596.748352,737.726990 
	C595.706116,735.141235 594.222229,734.035278 591.509277,734.241211 
	C589.854065,734.366943 588.145264,734.477722 586.522644,734.213501 
	C581.762817,733.438538 579.319519,735.577637 578.453125,740.499390 
M585.368469,718.773254 
	C585.119202,720.493347 583.346313,722.472778 585.032654,723.864136 
	C586.890564,725.397156 589.290710,725.001892 591.794678,723.595459 
	C590.856323,719.624146 590.046570,715.789246 587.730591,711.656860 
	C586.844604,714.296631 586.216980,716.166748 585.368469,718.773254 
z"/>
<path fill="#000000" opacity="1.000000" stroke="none" 
	d="
M697.976562,697.408264 
	C703.745850,712.912476 709.296753,728.111450 714.888000,743.420776 
	C705.513550,745.474976 704.602783,745.069641 701.358582,737.402527 
	C700.468140,735.298096 699.205139,734.197510 696.868530,734.267700 
	C694.210205,734.347656 691.544617,734.346619 688.887024,734.248840 
	C686.395020,734.157166 685.019897,735.125488 684.080261,737.567566 
	C681.116211,745.271240 680.791809,745.343018 672.486633,743.628967 
	C671.073181,741.828857 672.334045,740.140076 672.903320,738.524841 
	C676.935791,727.084106 680.986694,715.648865 685.164246,704.260498 
	C688.326721,695.639343 688.508972,695.617432 697.976562,697.408264 
M693.772949,714.377991 
	C693.476318,713.711548 693.561523,712.722473 692.052429,712.758423 
	C691.043274,716.493408 688.832336,719.998108 689.169556,724.299988 
	C691.693909,724.725586 693.916321,725.103394 696.312012,723.882568 
	C696.302979,720.714478 694.896301,717.910950 693.772949,714.377991 
z"/>
<path fill="#000000" opacity="1.000000" stroke="none" 
	d="
M817.142334,792.406921 
	C812.953003,780.340027 819.181763,771.181030 831.462097,770.713684 
	C833.973938,770.618103 836.420776,770.935730 838.875305,771.528442 
	C846.844238,773.452637 848.363159,776.654358 844.760559,784.681824 
	C841.142883,782.739502 837.650452,780.357483 833.334839,780.350159 
	C830.297363,780.344971 826.807312,780.204895 826.246582,784.138184 
	C825.688416,788.053345 828.895874,789.012085 831.966919,789.682251 
	C834.887878,790.319580 837.846252,790.824036 840.720520,791.628723 
	C845.729309,793.031067 849.447510,795.978394 850.201233,801.399902 
	C851.050964,807.511719 849.966675,813.237366 844.330078,816.798401 
	C835.782227,822.198792 826.881958,821.068298 818.026672,817.448853 
	C816.520874,816.833435 815.710083,815.609619 815.713867,813.919556 
	C815.720398,810.964905 815.715698,808.010254 815.715698,805.232361 
	C818.256409,804.439880 818.862244,806.242188 819.914673,807.116699 
	C824.880310,811.242737 830.509766,811.548218 836.391357,809.943237 
	C838.579163,809.346191 840.369141,807.764282 840.423645,805.363342 
	C840.481812,802.803162 838.458618,801.616577 836.234375,801.092285 
	C833.331238,800.407959 830.381165,799.919617 827.446594,799.372070 
	C823.152954,798.570923 819.650757,796.575928 817.142334,792.406921 
z"/>
<path fill="#000000" opacity="1.000000" stroke="none" 
	d="
M378.210358,772.737549 
	C381.801270,775.494019 382.245117,778.316162 380.299042,784.693970 
	C376.315948,782.762024 372.604736,780.013123 367.903778,780.318726 
	C365.047363,780.504456 361.835938,780.420471 361.371979,784.194885 
	C360.908630,787.964966 364.006470,788.813477 366.777008,789.543030 
	C369.990723,790.389282 373.306976,790.859497 376.499054,791.771667 
	C382.270111,793.420837 385.466187,797.386963 385.824341,803.368408 
	C386.166260,809.079041 384.292786,814.034668 379.222839,817.025635 
	C370.747620,822.025635 361.799042,821.597229 353.436371,817.185852 
	C348.287903,814.470032 351.525970,809.332886 351.867645,804.720337 
	C356.587341,809.348999 361.890717,811.452087 368.217468,810.736633 
	C369.909332,810.545288 371.511993,810.259155 372.957489,809.367676 
	C374.608521,808.349487 375.743530,806.990601 375.610718,804.897095 
	C375.471191,802.697449 373.998322,801.627380 372.116486,801.197449 
	C368.883179,800.458740 365.575897,800.040466 362.348114,799.281555 
	C355.142700,797.587646 351.161499,792.946533 350.833984,786.079224 
	C350.515015,779.389771 354.737488,773.814331 361.666656,771.671021 
	C367.176392,769.966736 372.525177,770.634155 378.210358,772.737549 
z"/>
<path fill="#000000" opacity="1.000000" stroke="none" 
	d="
M199.907593,770.706909 
	C201.027084,770.743591 201.699341,770.721375 202.353745,770.818909 
	C211.658325,772.206055 212.748230,773.863342 210.566360,783.646118 
	C202.170120,780.566650 193.497131,777.337585 186.755615,786.430542 
	C183.020096,791.469116 183.694153,801.633972 188.106323,806.094543 
	C195.360062,813.428040 203.246597,810.193481 210.871689,806.394775 
	C213.793518,813.683228 212.176239,817.165039 205.074554,819.297485 
	C190.112091,823.790405 177.441849,816.588074 174.314941,801.812500 
	C170.867126,785.520508 179.526367,772.837036 195.468628,770.868530 
	C196.783203,770.706238 198.123657,770.753601 199.907593,770.706909 
z"/>
<path fill="#000000" opacity="1.000000" stroke="none" 
	d="
M584.347290,810.103333 
	C588.375366,809.909851 591.417419,808.218506 594.234985,806.090393 
	C597.884949,812.338745 595.971130,817.119751 589.282043,819.174072 
	C578.974792,822.339661 568.591431,819.717163 562.835632,812.494751 
	C556.702271,804.798523 555.730286,791.127563 560.682007,782.202698 
	C565.270569,773.932251 575.498657,769.442688 586.537476,770.853516 
	C595.236328,771.965271 596.510437,773.930481 594.511963,783.598694 
	C586.326782,780.886719 577.609131,777.145203 571.010376,785.960815 
	C566.778748,791.614136 567.346863,798.354065 570.653992,804.427673 
	C573.448853,809.560486 578.413879,810.812805 584.347290,810.103333 
z"/>
<path fill="#000000" opacity="1.000000" stroke="none" 
	d="
M316.575928,734.170044 
	C312.684357,727.178284 312.756775,719.911438 314.248138,712.921082 
	C317.211456,699.030579 335.218475,690.725891 348.192810,697.075012 
	C353.265442,699.557373 350.331940,704.273621 350.771698,708.747009 
	C341.651825,705.313965 332.762238,701.822266 326.178253,711.465393 
	C322.483246,716.877258 323.526367,727.154968 327.936401,731.117798 
	C335.260925,737.699585 342.936920,735.200684 350.402679,730.969666 
	C352.988586,739.273254 351.259247,742.458374 343.261566,744.361206 
	C332.008240,747.038757 322.901459,743.648987 316.575928,734.170044 
z"/>
<path fill="#000000" opacity="1.000000" stroke="none" 
	d="
M624.003296,771.672852 
	C630.474060,771.672546 636.447144,771.672546 642.622375,771.672546 
	C643.781006,774.471008 643.432434,777.182434 642.900635,780.077698 
	C642.183472,780.252991 641.556213,780.560059 640.943665,780.533020 
	C631.386841,780.113220 632.079041,779.625305 632.059937,789.228821 
	C632.043396,797.545776 631.907654,805.867249 632.138184,814.178040 
	C632.257263,818.471497 630.399475,819.520386 626.459839,819.485962 
	C622.585327,819.452026 620.657043,818.525208 620.769470,814.176697 
	C621.005798,805.034180 620.848083,795.881042 620.822998,786.732361 
	C620.805725,780.437500 620.628967,780.292053 614.369080,780.441711 
	C613.071411,780.472717 611.772400,780.446289 610.542542,780.446289 
	C608.397888,772.656799 609.073120,771.702393 616.519348,771.676208 
	C618.848145,771.668030 621.176880,771.673767 624.003296,771.672852 
z"/>
<path fill="#000000" opacity="1.000000" stroke="none" 
	d="
M422.420227,810.952515 
	C421.565613,814.273804 424.741455,818.962891 418.653687,819.375000 
	C412.435730,819.796082 411.744263,819.240479 411.728241,813.008301 
	C411.705566,804.192505 411.735382,795.376648 411.719299,786.560791 
	C411.708221,780.493713 411.316376,780.039429 405.129150,780.487488 
	C402.234467,780.697144 399.829346,781.149963 399.987671,776.882568 
	C400.122589,773.245728 401.108734,771.476929 405.220490,771.593323 
	C414.662842,771.860352 424.117920,771.677917 433.297394,771.677917 
	C434.682434,773.326721 434.177551,774.886230 434.324158,776.331116 
	C434.644684,779.490662 433.521637,780.724609 430.079102,780.570923 
	C422.422211,780.229065 422.415710,780.419617 422.418732,788.004700 
	C422.421722,795.489868 422.420044,802.974976 422.420227,810.952515 
z"/>
<path fill="#000000" opacity="1.000000" stroke="none" 
	d="
M498.257050,735.926575 
	C498.080597,740.166138 499.633667,744.682434 492.818115,744.432251 
	C488.391144,744.269775 487.029510,742.733032 487.078613,738.552917 
	C487.223053,726.251587 487.303467,713.943481 487.029633,701.646423 
	C486.920135,696.728882 489.351257,696.561951 493.188416,696.484436 
	C497.111847,696.405090 498.422455,697.528076 498.343933,701.506592 
	C498.120728,712.813416 498.260193,724.127319 498.257050,735.926575 
z"/>
<path fill="#000000" opacity="1.000000" stroke="none" 
	d="
M661.645264,782.028992 
	C661.645142,780.370972 661.639343,779.207458 661.646606,778.044006 
	C661.686462,771.687683 662.547485,771.021790 668.954529,771.671692 
	C671.203369,771.899780 672.276062,772.775269 672.272522,775.038635 
	C672.251221,788.667542 672.268555,802.296509 672.233337,815.925354 
	C672.222351,820.184998 668.945435,819.190613 666.453918,819.365723 
	C663.644348,819.563232 661.611084,819.011292 661.641907,815.433044 
	C661.736328,804.463989 661.657288,793.493469 661.645264,782.028992 
z"/>
</svg>